<svg width="774" height="717" viewBox="0 0 774 717" fill="none" xmlns="http://www.w3.org/2000/svg">
<g opacity="0.2" filter="url(#filter0_d_202_87)">
<path d="M397.082 348.857C382.738 321.858 366.549 302.394 360.924 305.383C355.299 308.371 362.368 332.681 376.713 359.68C391.058 386.679 407.247 406.143 412.871 403.155C418.496 400.166 411.427 375.856 397.082 348.857Z" stroke="url(#paint0_linear_202_87)" stroke-width="2" stroke-miterlimit="10"/>
<path d="M397.335 348.441C381.273 319.596 363.591 298.809 357.841 302.011C352.09 305.213 360.449 331.192 376.51 360.037C392.572 388.881 410.254 409.669 416.005 406.467C421.755 403.265 413.396 377.286 397.335 348.441Z" stroke="url(#paint1_linear_202_87)" stroke-width="2" stroke-miterlimit="10"/>
<path d="M397.508 347.902C379.563 317.074 360.255 294.854 354.383 298.272C348.511 301.69 358.298 329.452 376.243 360.28C394.188 391.108 413.495 413.329 419.367 409.911C425.239 406.493 415.452 378.73 397.508 347.902Z" stroke="url(#paint2_linear_202_87)" stroke-width="2" stroke-miterlimit="10"/>
<path d="M397.853 347.809C377.913 314.96 356.893 291.278 350.904 294.914C344.915 298.55 356.224 328.126 376.165 360.975C396.106 393.823 417.126 417.505 423.115 413.87C429.104 410.234 417.794 380.658 397.853 347.809Z" stroke="url(#paint3_linear_202_87)" stroke-width="2" stroke-miterlimit="10"/>
<path d="M398.035 347.197C375.975 312.286 353.145 287.112 347.042 290.968C340.94 294.824 353.875 326.251 375.935 361.162C397.995 396.072 420.825 421.247 426.927 417.391C433.03 413.534 420.094 382.108 398.035 347.197Z" stroke="url(#paint4_linear_202_87)" stroke-width="2" stroke-miterlimit="10"/>
<path d="M398.129 346.878C373.773 309.786 348.992 283.024 342.781 287.103C336.569 291.182 351.279 324.557 375.635 361.649C399.992 398.741 424.772 425.503 430.984 421.424C437.195 417.345 422.486 383.97 398.129 346.878Z" stroke="url(#paint5_linear_202_87)" stroke-width="2" stroke-miterlimit="10"/>
<path d="M398.608 346.545C371.833 307.243 344.936 278.919 338.532 283.282C332.128 287.645 348.642 323.042 375.417 362.344C402.192 401.646 429.089 429.97 435.493 425.607C441.898 421.244 425.383 385.847 398.608 346.545Z" stroke="url(#paint6_linear_202_87)" stroke-width="2" stroke-miterlimit="10"/>
<path d="M398.896 346.018C369.51 304.393 340.346 274.421 333.755 279.074C327.165 283.726 345.644 321.242 375.029 362.867C404.415 404.492 433.58 434.464 440.17 429.811C446.761 425.159 428.282 387.643 398.896 346.018Z" stroke="url(#paint7_linear_202_87)" stroke-width="2" stroke-miterlimit="10"/>
<path d="M399.126 345.35C367.058 301.466 335.573 269.903 328.802 274.851C322.031 279.798 342.538 319.384 374.606 363.268C406.673 407.152 438.159 438.716 444.93 433.768C451.701 428.82 431.194 389.234 399.126 345.35Z" stroke="url(#paint8_linear_202_87)" stroke-width="2" stroke-miterlimit="10"/>
<path d="M399.703 344.756C364.763 298.509 330.809 265.272 323.864 270.519C316.918 275.767 339.611 317.511 374.55 363.758C409.489 410.006 443.444 443.243 450.389 437.995C457.335 432.748 434.642 391.004 399.703 344.756Z" stroke="url(#paint9_linear_202_87)" stroke-width="2" stroke-miterlimit="10"/>
<path d="M399.902 343.911C361.881 295.207 325.225 260.28 318.028 265.898C310.831 271.516 335.819 315.553 373.84 364.256C411.862 412.96 448.518 447.887 455.715 442.269C462.912 436.651 437.923 392.614 399.902 343.911Z" stroke="url(#paint10_linear_202_87)" stroke-width="2" stroke-miterlimit="10"/>
<path d="M400.517 343.469C359.35 292.389 319.948 255.841 312.509 261.836C305.07 267.832 332.412 314.1 373.579 365.179C414.746 416.259 454.148 452.807 461.587 446.812C469.026 440.817 441.684 394.549 400.517 343.469Z" stroke="url(#paint11_linear_202_87)" stroke-width="2" stroke-miterlimit="10"/>
<path d="M400.837 342.929C356.31 289.39 313.995 251.162 306.324 257.542C298.652 263.922 328.529 312.496 373.056 366.034C417.583 419.572 459.898 457.801 467.569 451.42C475.241 445.04 445.364 396.467 400.837 342.929Z" stroke="url(#paint12_linear_202_87)" stroke-width="2" stroke-miterlimit="10"/>
<path d="M401.148 342.024C353.111 286.026 307.768 246.122 299.872 252.895C291.976 259.669 324.516 310.555 372.554 366.553C420.591 422.551 465.934 462.455 473.83 455.682C481.726 448.908 449.185 398.022 401.148 342.024Z" stroke="url(#paint13_linear_202_87)" stroke-width="2" stroke-miterlimit="10"/>
<path d="M401.807 341.079C350.045 282.551 301.444 240.977 293.253 248.221C285.063 255.464 320.384 308.783 372.146 367.311C423.907 425.839 472.508 467.413 480.699 460.169C488.89 452.925 453.569 399.606 401.807 341.079Z" stroke="url(#paint14_linear_202_87)" stroke-width="2" stroke-miterlimit="10"/>
<path d="M402.468 340.184C346.898 279.229 294.919 236.134 286.368 243.93C277.817 251.725 315.933 307.458 371.502 368.413C427.071 429.369 479.05 472.463 487.601 464.668C496.152 456.872 458.037 401.139 402.468 340.184Z" stroke="url(#paint15_linear_202_87)" stroke-width="2" stroke-miterlimit="10"/>
<path d="M402.987 339.004C343.449 275.641 287.971 231.052 279.074 239.412C270.177 247.772 311.229 305.915 370.767 369.278C430.305 432.641 485.783 477.23 494.68 468.87C503.577 460.51 462.525 402.367 402.987 339.004Z" stroke="url(#paint16_linear_202_87)" stroke-width="2" stroke-miterlimit="10"/>
<path d="M403.57 337.97C339.909 272.232 280.821 226.185 271.593 235.121C262.366 244.057 306.492 304.593 370.154 370.331C433.815 436.069 492.903 482.117 502.131 473.181C511.359 464.244 467.232 403.709 403.57 337.97Z" stroke="url(#paint17_linear_202_87)" stroke-width="2" stroke-miterlimit="10"/>
<path d="M404.457 336.921C336.442 268.772 273.509 221.307 263.891 230.906C254.274 240.504 301.614 303.531 369.629 371.681C437.643 439.83 500.577 487.296 510.194 477.697C519.812 468.098 472.472 405.071 404.457 336.921Z" stroke="url(#paint18_linear_202_87)" stroke-width="2" stroke-miterlimit="10"/>
<path d="M405.056 335.611C332.662 265.245 265.877 216.534 255.888 226.811C245.9 237.088 296.489 302.461 368.884 372.826C441.278 443.192 508.063 491.903 518.052 481.626C528.041 471.349 477.451 405.976 405.056 335.611Z" stroke="url(#paint19_linear_202_87)" stroke-width="2" stroke-miterlimit="10"/>
<path d="M405.835 334.167C328.817 261.573 257.882 211.741 247.397 222.865C236.912 233.989 290.848 301.856 367.866 374.45C444.884 447.044 515.819 496.876 526.304 485.752C536.789 474.628 482.854 406.761 405.835 334.167Z" stroke="url(#paint20_linear_202_87)" stroke-width="2" stroke-miterlimit="10"/>
<path d="M406.666 332.682C324.932 257.989 249.849 207.095 238.964 219.007C228.079 230.918 285.513 301.124 367.247 375.817C448.982 450.509 524.064 501.403 534.95 489.492C545.835 477.58 488.4 407.374 406.666 332.682Z" stroke="url(#paint21_linear_202_87)" stroke-width="2" stroke-miterlimit="10"/>
<path d="M407.415 331.052C320.862 254.418 241.455 202.732 230.055 215.607C218.655 228.483 279.578 301.045 366.131 377.679C452.684 454.313 532.091 505.999 543.491 493.124C554.891 480.248 493.967 407.686 407.415 331.052Z" stroke="url(#paint22_linear_202_87)" stroke-width="2" stroke-miterlimit="10"/>
<path d="M408.666 328.97C317.123 250.464 233.221 198.123 221.266 212.064C209.31 226.005 273.828 300.948 365.37 379.454C456.913 457.961 540.815 510.301 552.77 496.36C564.726 482.42 500.208 407.476 408.666 328.97Z" stroke="url(#paint23_linear_202_87)" stroke-width="2" stroke-miterlimit="10"/>
<path d="M409.592 327.159C313.038 247.03 224.654 194.257 212.18 209.287C199.707 224.318 267.867 301.46 364.421 381.589C460.976 461.719 549.36 514.492 561.834 499.461C574.308 484.431 506.147 407.289 409.592 327.159Z" stroke="url(#paint24_linear_202_87)" stroke-width="2" stroke-miterlimit="10"/>
<path d="M410.434 324.787C308.671 243.141 215.566 190.178 202.479 206.49C189.392 222.802 261.278 302.212 363.041 383.858C464.805 465.503 557.91 518.467 570.997 502.155C584.084 485.843 512.198 406.432 410.434 324.787Z" stroke="url(#paint25_linear_202_87)" stroke-width="2" stroke-miterlimit="10"/>
<path d="M411.711 322.247C304.731 239.332 206.883 186.468 193.161 204.172C179.44 221.876 255.04 303.444 362.02 386.359C469 469.274 566.848 522.138 580.57 504.433C594.291 486.729 518.691 405.162 411.711 322.247Z" stroke="url(#paint26_linear_202_87)" stroke-width="2" stroke-miterlimit="10"/>
<path d="M413.178 319.378C300.88 235.393 198.145 182.953 183.713 202.25C169.281 221.547 248.617 305.274 360.915 389.259C473.213 473.244 575.948 525.684 590.38 506.387C604.812 487.09 525.476 403.363 413.178 319.378Z" stroke="url(#paint27_linear_202_87)" stroke-width="2" stroke-miterlimit="10"/>
<path d="M414.243 316.463C296.683 231.753 189.156 180.047 174.076 200.976C158.996 221.904 242.072 307.541 359.632 392.251C477.192 476.962 584.718 528.667 599.798 507.739C614.879 486.811 531.802 401.174 414.243 316.463Z" stroke="url(#paint28_linear_202_87)" stroke-width="2" stroke-miterlimit="10"/>
<path d="M415.604 313.072C292.685 227.86 180.193 177.311 164.348 200.167C148.503 223.024 235.305 310.631 358.225 395.844C481.145 481.056 593.636 531.605 609.481 508.748C625.326 485.892 538.524 398.285 415.604 313.072Z" stroke="url(#paint29_linear_202_87)" stroke-width="2" stroke-miterlimit="10"/>
<path d="M416.948 309.029C288.643 223.605 171.134 174.628 154.485 199.635C137.836 224.642 228.35 314.164 356.656 399.588C484.961 485.011 602.47 533.989 619.119 508.982C635.768 483.974 545.253 394.452 416.948 309.029Z" stroke="url(#paint30_linear_202_87)" stroke-width="2" stroke-miterlimit="10"/>
<path d="M418.338 304.774C284.641 219.449 162.136 172.405 144.717 199.7C127.298 226.994 221.56 318.29 355.258 403.616C488.955 488.941 611.46 535.984 628.879 508.69C646.298 481.396 552.036 390.099 418.338 304.774Z" stroke="url(#paint31_linear_202_87)" stroke-width="2" stroke-miterlimit="10"/>
<path d="M419.967 299.912C281.055 215.126 153.603 170.707 135.297 200.701C116.99 230.695 214.76 323.742 353.673 408.528C492.586 493.314 620.037 537.732 638.344 507.739C656.651 477.745 558.88 384.698 419.967 299.912Z" stroke="url(#paint32_linear_202_87)" stroke-width="2" stroke-miterlimit="10"/>
<path d="M421.573 294.727C277.449 210.808 145.111 169.402 125.988 202.245C106.864 235.088 208.197 329.743 352.321 413.662C496.444 497.582 628.782 538.987 647.906 506.144C667.029 473.301 565.697 378.647 421.573 294.727Z" stroke="url(#paint33_linear_202_87)" stroke-width="2" stroke-miterlimit="10"/>
<path d="M423.121 289.057C273.886 206.421 136.692 168.717 116.689 204.842C96.6855 240.966 201.448 337.24 350.683 419.876C499.918 502.511 637.112 540.215 657.116 504.09C677.119 467.966 572.356 371.692 423.121 289.057Z" stroke="url(#paint34_linear_202_87)" stroke-width="2" stroke-miterlimit="10"/>
<path d="M424.957 282.106C270.718 201.137 128.723 167.805 107.802 207.657C86.8817 247.509 194.957 345.454 349.196 426.423C503.435 507.392 645.429 540.724 666.35 500.872C687.271 461.02 579.195 363.075 424.957 282.106Z" stroke="url(#paint35_linear_202_87)" stroke-width="2" stroke-miterlimit="10"/>
<path d="M426.421 274.62C267.388 195.796 120.809 167.519 99.0282 211.463C77.2477 255.406 188.513 354.929 347.547 433.754C506.581 512.579 653.16 540.856 674.941 496.912C696.721 452.969 585.455 353.445 426.421 274.62Z" stroke="url(#paint36_linear_202_87)" stroke-width="2" stroke-miterlimit="10"/>
<path d="M427.891 266.174C264.203 189.918 113.155 167.496 90.5161 216.093C67.8771 264.689 182.22 365.901 345.908 442.157C509.596 518.412 660.644 540.834 683.283 492.238C705.922 443.641 591.58 342.429 427.891 266.174Z" stroke="url(#paint37_linear_202_87)" stroke-width="2" stroke-miterlimit="10"/>
<path d="M429.258 257.125C261.18 183.921 105.957 168.128 82.5589 221.851C59.1606 275.574 176.447 378.468 344.526 451.673C512.604 524.877 667.827 540.67 691.225 486.947C714.623 433.224 597.337 330.329 429.258 257.125Z" stroke="url(#paint38_linear_202_87)" stroke-width="2" stroke-miterlimit="10"/>
<path d="M430.757 246.406C258.563 176.703 99.4064 168.537 75.2696 228.165C51.1327 287.793 171.156 392.636 343.349 462.338C515.543 532.04 674.7 540.207 698.837 480.579C722.973 420.951 602.95 316.108 430.757 246.406Z" stroke="url(#paint39_linear_202_87)" stroke-width="2" stroke-miterlimit="10"/>
<path d="M431.627 234.661C255.606 168.935 92.8938 169.264 68.2001 235.396C43.5064 301.529 166.182 408.421 342.203 474.147C518.224 539.873 680.936 539.544 705.63 473.412C730.324 407.279 607.648 300.387 431.627 234.661Z" stroke="url(#paint40_linear_202_87)" stroke-width="2" stroke-miterlimit="10"/>
<path d="M432.49 221.206C252.976 159.894 87.092 169.802 61.9773 243.336C36.8626 316.869 162.028 426.183 341.542 487.494C521.056 548.806 686.941 538.898 712.056 465.364C737.17 391.831 612.005 282.517 432.49 221.206Z" stroke="url(#paint41_linear_202_87)" stroke-width="2" stroke-miterlimit="10"/>
<path d="M432.746 206.111C250.086 149.654 81.5025 170.236 56.2048 252.083C30.907 333.931 158.474 446.049 341.135 502.506C523.795 558.964 692.378 538.382 717.676 456.534C742.974 374.687 615.406 262.569 432.746 206.111Z" stroke="url(#paint42_linear_202_87)" stroke-width="2" stroke-miterlimit="10"/>
<path d="M432.5 189.416C246.987 138.202 76.1953 170.593 51.0262 261.764C25.8571 352.934 155.842 468.36 341.355 519.574C526.868 570.788 697.66 538.396 722.829 447.226C747.998 356.055 618.014 240.63 432.5 189.416Z" stroke="url(#paint43_linear_202_87)" stroke-width="2" stroke-miterlimit="10"/>
<path d="M431.586 170.304C243.623 124.696 71.2622 170.099 46.6061 271.714C21.9499 373.329 154.336 492.677 342.298 538.284C530.26 583.892 702.621 538.489 727.277 436.874C751.934 335.259 619.548 215.911 431.586 170.304Z" stroke="url(#paint44_linear_202_87)" stroke-width="2" stroke-miterlimit="10"/>
<path d="M429.728 149.251C239.769 109.606 66.6133 169.29 42.9738 282.559C19.3342 395.827 154.162 519.788 344.121 559.434C534.08 599.079 707.236 539.395 730.876 426.126C754.516 312.857 619.687 188.896 429.728 149.251Z" stroke="url(#paint45_linear_202_87)" stroke-width="2" stroke-miterlimit="10"/>
<path d="M426.924 125.45C235.239 92.0203 61.9731 167.412 39.9238 293.843C17.8745 420.273 155.391 549.866 347.076 583.295C538.761 616.725 712.027 541.333 734.076 414.902C756.126 288.472 618.609 158.879 426.924 125.45Z" stroke="url(#paint46_linear_202_87)" stroke-width="2" stroke-miterlimit="10"/>
<path d="M422.481 99.0444C229.449 72.0699 56.9948 164.497 37.2928 305.486C17.5908 446.474 158.102 582.636 351.134 609.61C544.166 636.585 716.62 544.158 736.322 403.169C756.024 262.18 615.513 126.019 422.481 99.0444Z" stroke="url(#paint47_linear_202_87)" stroke-width="2" stroke-miterlimit="10"/>
<path d="M416.816 69.8637C222.88 49.5243 52.2983 160.469 35.812 317.667C19.3257 474.864 163.177 618.786 357.114 639.125C551.05 659.464 721.631 548.519 738.118 391.322C754.604 234.125 610.752 90.2031 416.816 69.8637Z" stroke="url(#paint48_linear_202_87)" stroke-width="2" stroke-miterlimit="10"/>
<path d="M408.991 37.1023C214.344 23.4917 46.6229 154.454 34.3749 329.615C22.1269 504.776 169.99 657.805 364.637 671.416C559.284 685.027 727.005 554.064 739.253 378.903C751.501 203.742 603.638 50.7128 408.991 37.1023Z" stroke="url(#paint49_linear_202_87)" stroke-width="2" stroke-miterlimit="10"/>
<path d="M740.224 354.287C740.224 159.172 582.052 1.00004 386.937 1.00005C191.822 1.00005 33.65 159.172 33.65 354.287C33.65 549.402 191.822 707.574 386.937 707.574C582.052 707.574 740.224 549.402 740.224 354.287Z" stroke="url(#paint50_linear_202_87)" stroke-width="2" stroke-miterlimit="10"/>
</g>
<defs>
<filter id="filter0_d_202_87" x="28.65" y="3.05176e-05" width="716.574" height="716.574" filterUnits="userSpaceOnUse" color-interpolation-filters="sRGB">
<feFlood flood-opacity="0" result="BackgroundImageFix"/>
<feColorMatrix in="SourceAlpha" type="matrix" values="0 0 0 0 0 0 0 0 0 0 0 0 0 0 0 0 0 0 127 0" result="hardAlpha"/>
<feOffset dy="4"/>
<feGaussianBlur stdDeviation="2"/>
<feComposite in2="hardAlpha" operator="out"/>
<feColorMatrix type="matrix" values="0 0 0 0 0 0 0 0 0 0 0 0 0 0 0 0 0 0 0.25 0"/>
<feBlend mode="normal" in2="BackgroundImageFix" result="effect1_dropShadow_202_87"/>
<feBlend mode="normal" in="SourceGraphic" in2="effect1_dropShadow_202_87" result="shape"/>
</filter>
<linearGradient id="paint0_linear_202_87" x1="376.713" y1="359.68" x2="397.082" y2="348.858" gradientUnits="userSpaceOnUse">
<stop stop-color="#39A2DB"/>
<stop offset="1" stop-color="#E187D8"/>
</linearGradient>
<linearGradient id="paint1_linear_202_87" x1="376.51" y1="360.037" x2="397.335" y2="348.441" gradientUnits="userSpaceOnUse">
<stop stop-color="#39A2DB"/>
<stop offset="1" stop-color="#E187D8"/>
</linearGradient>
<linearGradient id="paint2_linear_202_87" x1="376.243" y1="360.28" x2="397.508" y2="347.902" gradientUnits="userSpaceOnUse">
<stop stop-color="#39A2DB"/>
<stop offset="1" stop-color="#E187D8"/>
</linearGradient>
<linearGradient id="paint3_linear_202_87" x1="376.165" y1="360.975" x2="397.853" y2="347.809" gradientUnits="userSpaceOnUse">
<stop stop-color="#39A2DB"/>
<stop offset="1" stop-color="#E187D8"/>
</linearGradient>
<linearGradient id="paint4_linear_202_87" x1="375.935" y1="361.162" x2="398.035" y2="347.197" gradientUnits="userSpaceOnUse">
<stop stop-color="#39A2DB"/>
<stop offset="1" stop-color="#E187D8"/>
</linearGradient>
<linearGradient id="paint5_linear_202_87" x1="375.635" y1="361.649" x2="398.129" y2="346.878" gradientUnits="userSpaceOnUse">
<stop stop-color="#39A2DB"/>
<stop offset="1" stop-color="#E187D8"/>
</linearGradient>
<linearGradient id="paint6_linear_202_87" x1="375.417" y1="362.344" x2="398.608" y2="346.545" gradientUnits="userSpaceOnUse">
<stop stop-color="#39A2DB"/>
<stop offset="1" stop-color="#E187D8"/>
</linearGradient>
<linearGradient id="paint7_linear_202_87" x1="375.029" y1="362.867" x2="398.896" y2="346.018" gradientUnits="userSpaceOnUse">
<stop stop-color="#39A2DB"/>
<stop offset="1" stop-color="#E187D8"/>
</linearGradient>
<linearGradient id="paint8_linear_202_87" x1="374.606" y1="363.268" x2="399.126" y2="345.35" gradientUnits="userSpaceOnUse">
<stop stop-color="#39A2DB"/>
<stop offset="1" stop-color="#E187D8"/>
</linearGradient>
<linearGradient id="paint9_linear_202_87" x1="374.55" y1="363.758" x2="399.703" y2="344.756" gradientUnits="userSpaceOnUse">
<stop stop-color="#39A2DB"/>
<stop offset="1" stop-color="#E187D8"/>
</linearGradient>
<linearGradient id="paint10_linear_202_87" x1="373.84" y1="364.256" x2="399.902" y2="343.911" gradientUnits="userSpaceOnUse">
<stop stop-color="#39A2DB"/>
<stop offset="1" stop-color="#E187D8"/>
</linearGradient>
<linearGradient id="paint11_linear_202_87" x1="373.579" y1="365.18" x2="400.517" y2="343.469" gradientUnits="userSpaceOnUse">
<stop stop-color="#39A2DB"/>
<stop offset="1" stop-color="#E187D8"/>
</linearGradient>
<linearGradient id="paint12_linear_202_87" x1="373.056" y1="366.034" x2="400.837" y2="342.929" gradientUnits="userSpaceOnUse">
<stop stop-color="#39A2DB"/>
<stop offset="1" stop-color="#E187D8"/>
</linearGradient>
<linearGradient id="paint13_linear_202_87" x1="372.554" y1="366.553" x2="401.148" y2="342.024" gradientUnits="userSpaceOnUse">
<stop stop-color="#39A2DB"/>
<stop offset="1" stop-color="#E187D8"/>
</linearGradient>
<linearGradient id="paint14_linear_202_87" x1="372.146" y1="367.311" x2="401.807" y2="341.079" gradientUnits="userSpaceOnUse">
<stop stop-color="#39A2DB"/>
<stop offset="1" stop-color="#E187D8"/>
</linearGradient>
<linearGradient id="paint15_linear_202_87" x1="371.502" y1="368.414" x2="402.468" y2="340.184" gradientUnits="userSpaceOnUse">
<stop stop-color="#39A2DB"/>
<stop offset="1" stop-color="#E187D8"/>
</linearGradient>
<linearGradient id="paint16_linear_202_87" x1="370.767" y1="369.278" x2="402.987" y2="339.004" gradientUnits="userSpaceOnUse">
<stop stop-color="#39A2DB"/>
<stop offset="1" stop-color="#E187D8"/>
</linearGradient>
<linearGradient id="paint17_linear_202_87" x1="370.154" y1="370.331" x2="403.57" y2="337.97" gradientUnits="userSpaceOnUse">
<stop stop-color="#39A2DB"/>
<stop offset="1" stop-color="#E187D8"/>
</linearGradient>
<linearGradient id="paint18_linear_202_87" x1="369.629" y1="371.681" x2="404.457" y2="336.922" gradientUnits="userSpaceOnUse">
<stop stop-color="#39A2DB"/>
<stop offset="1" stop-color="#E187D8"/>
</linearGradient>
<linearGradient id="paint19_linear_202_87" x1="368.884" y1="372.826" x2="405.056" y2="335.611" gradientUnits="userSpaceOnUse">
<stop stop-color="#39A2DB"/>
<stop offset="1" stop-color="#E187D8"/>
</linearGradient>
<linearGradient id="paint20_linear_202_87" x1="367.866" y1="374.45" x2="405.836" y2="334.167" gradientUnits="userSpaceOnUse">
<stop stop-color="#39A2DB"/>
<stop offset="1" stop-color="#E187D8"/>
</linearGradient>
<linearGradient id="paint21_linear_202_87" x1="367.247" y1="375.817" x2="406.666" y2="332.682" gradientUnits="userSpaceOnUse">
<stop stop-color="#39A2DB"/>
<stop offset="1" stop-color="#E187D8"/>
</linearGradient>
<linearGradient id="paint22_linear_202_87" x1="366.131" y1="377.679" x2="407.415" y2="331.052" gradientUnits="userSpaceOnUse">
<stop stop-color="#39A2DB"/>
<stop offset="1" stop-color="#E187D8"/>
</linearGradient>
<linearGradient id="paint23_linear_202_87" x1="365.37" y1="379.454" x2="408.666" y2="328.97" gradientUnits="userSpaceOnUse">
<stop stop-color="#39A2DB"/>
<stop offset="1" stop-color="#E187D8"/>
</linearGradient>
<linearGradient id="paint24_linear_202_87" x1="364.422" y1="381.589" x2="409.592" y2="327.159" gradientUnits="userSpaceOnUse">
<stop stop-color="#39A2DB"/>
<stop offset="1" stop-color="#E187D8"/>
</linearGradient>
<linearGradient id="paint25_linear_202_87" x1="363.041" y1="383.858" x2="410.434" y2="324.787" gradientUnits="userSpaceOnUse">
<stop stop-color="#39A2DB"/>
<stop offset="1" stop-color="#E187D8"/>
</linearGradient>
<linearGradient id="paint26_linear_202_87" x1="362.02" y1="386.359" x2="411.711" y2="322.247" gradientUnits="userSpaceOnUse">
<stop stop-color="#39A2DB"/>
<stop offset="1" stop-color="#E187D8"/>
</linearGradient>
<linearGradient id="paint27_linear_202_87" x1="360.915" y1="389.259" x2="413.178" y2="319.378" gradientUnits="userSpaceOnUse">
<stop stop-color="#39A2DB"/>
<stop offset="1" stop-color="#E187D8"/>
</linearGradient>
<linearGradient id="paint28_linear_202_87" x1="359.632" y1="392.251" x2="414.243" y2="316.463" gradientUnits="userSpaceOnUse">
<stop stop-color="#39A2DB"/>
<stop offset="1" stop-color="#E187D8"/>
</linearGradient>
<linearGradient id="paint29_linear_202_87" x1="358.225" y1="395.844" x2="415.604" y2="313.072" gradientUnits="userSpaceOnUse">
<stop stop-color="#39A2DB"/>
<stop offset="1" stop-color="#E187D8"/>
</linearGradient>
<linearGradient id="paint30_linear_202_87" x1="356.656" y1="399.588" x2="416.948" y2="309.029" gradientUnits="userSpaceOnUse">
<stop stop-color="#39A2DB"/>
<stop offset="1" stop-color="#E187D8"/>
</linearGradient>
<linearGradient id="paint31_linear_202_87" x1="355.258" y1="403.616" x2="418.338" y2="304.774" gradientUnits="userSpaceOnUse">
<stop stop-color="#39A2DB"/>
<stop offset="1" stop-color="#E187D8"/>
</linearGradient>
<linearGradient id="paint32_linear_202_87" x1="353.673" y1="408.528" x2="419.968" y2="299.912" gradientUnits="userSpaceOnUse">
<stop stop-color="#39A2DB"/>
<stop offset="1" stop-color="#E187D8"/>
</linearGradient>
<linearGradient id="paint33_linear_202_87" x1="352.321" y1="413.662" x2="421.573" y2="294.727" gradientUnits="userSpaceOnUse">
<stop stop-color="#39A2DB"/>
<stop offset="1" stop-color="#E187D8"/>
</linearGradient>
<linearGradient id="paint34_linear_202_87" x1="350.683" y1="419.876" x2="423.121" y2="289.057" gradientUnits="userSpaceOnUse">
<stop stop-color="#39A2DB"/>
<stop offset="1" stop-color="#E187D8"/>
</linearGradient>
<linearGradient id="paint35_linear_202_87" x1="349.196" y1="426.423" x2="424.957" y2="282.106" gradientUnits="userSpaceOnUse">
<stop stop-color="#39A2DB"/>
<stop offset="1" stop-color="#E187D8"/>
</linearGradient>
<linearGradient id="paint36_linear_202_87" x1="347.547" y1="433.754" x2="426.422" y2="274.62" gradientUnits="userSpaceOnUse">
<stop stop-color="#39A2DB"/>
<stop offset="1" stop-color="#E187D8"/>
</linearGradient>
<linearGradient id="paint37_linear_202_87" x1="345.908" y1="442.157" x2="427.891" y2="266.174" gradientUnits="userSpaceOnUse">
<stop stop-color="#39A2DB"/>
<stop offset="1" stop-color="#E187D8"/>
</linearGradient>
<linearGradient id="paint38_linear_202_87" x1="344.526" y1="451.673" x2="429.258" y2="257.125" gradientUnits="userSpaceOnUse">
<stop stop-color="#39A2DB"/>
<stop offset="1" stop-color="#E187D8"/>
</linearGradient>
<linearGradient id="paint39_linear_202_87" x1="343.349" y1="462.338" x2="430.757" y2="246.406" gradientUnits="userSpaceOnUse">
<stop stop-color="#39A2DB"/>
<stop offset="1" stop-color="#E187D8"/>
</linearGradient>
<linearGradient id="paint40_linear_202_87" x1="342.203" y1="474.147" x2="431.627" y2="234.661" gradientUnits="userSpaceOnUse">
<stop stop-color="#39A2DB"/>
<stop offset="1" stop-color="#E187D8"/>
</linearGradient>
<linearGradient id="paint41_linear_202_87" x1="341.542" y1="487.494" x2="432.491" y2="221.206" gradientUnits="userSpaceOnUse">
<stop stop-color="#39A2DB"/>
<stop offset="1" stop-color="#E187D8"/>
</linearGradient>
<linearGradient id="paint42_linear_202_87" x1="341.135" y1="502.506" x2="432.746" y2="206.111" gradientUnits="userSpaceOnUse">
<stop stop-color="#39A2DB"/>
<stop offset="1" stop-color="#E187D8"/>
</linearGradient>
<linearGradient id="paint43_linear_202_87" x1="341.355" y1="519.574" x2="432.5" y2="189.416" gradientUnits="userSpaceOnUse">
<stop stop-color="#39A2DB"/>
<stop offset="1" stop-color="#E187D8"/>
</linearGradient>
<linearGradient id="paint44_linear_202_87" x1="342.298" y1="538.284" x2="431.586" y2="170.304" gradientUnits="userSpaceOnUse">
<stop stop-color="#39A2DB"/>
<stop offset="1" stop-color="#E187D8"/>
</linearGradient>
<linearGradient id="paint45_linear_202_87" x1="344.122" y1="559.434" x2="429.728" y2="149.251" gradientUnits="userSpaceOnUse">
<stop stop-color="#39A2DB"/>
<stop offset="1" stop-color="#E187D8"/>
</linearGradient>
<linearGradient id="paint46_linear_202_87" x1="347.076" y1="583.295" x2="426.924" y2="125.45" gradientUnits="userSpaceOnUse">
<stop stop-color="#39A2DB"/>
<stop offset="1" stop-color="#E187D8"/>
</linearGradient>
<linearGradient id="paint47_linear_202_87" x1="351.134" y1="609.61" x2="422.481" y2="99.0444" gradientUnits="userSpaceOnUse">
<stop stop-color="#39A2DB"/>
<stop offset="1" stop-color="#E187D8"/>
</linearGradient>
<linearGradient id="paint48_linear_202_87" x1="357.114" y1="639.125" x2="416.816" y2="69.8637" gradientUnits="userSpaceOnUse">
<stop stop-color="#39A2DB"/>
<stop offset="1" stop-color="#E187D8"/>
</linearGradient>
<linearGradient id="paint49_linear_202_87" x1="364.637" y1="671.416" x2="408.991" y2="37.1023" gradientUnits="userSpaceOnUse">
<stop stop-color="#39A2DB"/>
<stop offset="1" stop-color="#E187D8"/>
</linearGradient>
<linearGradient id="paint50_linear_202_87" x1="33.65" y1="354.287" x2="740.224" y2="354.287" gradientUnits="userSpaceOnUse">
<stop stop-color="#39A2DB"/>
<stop offset="1" stop-color="#E187D8"/>
</linearGradient>
</defs>
</svg>
